<svg width="371" height="482" viewBox="0 0 371 482" fill="none" xmlns="http://www.w3.org/2000/svg">
<circle cx="185.5" cy="14.5" r="14.5" fill="#ECB50F"/>
<circle cx="185" cy="48" r="10" fill="black" fill-opacity="0.6"/>
<circle cx="185" cy="74" r="7" fill="#A1211F" fill-opacity="0.6"/>
<circle cx="185.5" cy="296.5" r="185.5" fill="#2D2D2D" fill-opacity="0.5"/>
<g opacity="0.6" clip-path="url(#clip0)">
<g opacity="0.5">
<path opacity="0.5" d="M179.245 235.939C192.285 235.939 202.856 225.343 202.856 212.273C202.856 199.202 192.285 188.607 179.245 188.607C166.205 188.607 155.635 199.202 155.635 212.273C155.635 225.343 166.205 235.939 179.245 235.939Z" fill="url(#paint0_linear)"/>
</g>
<path d="M179.292 235.287C192.055 235.287 202.402 224.916 202.402 212.122C202.402 199.329 192.055 188.958 179.292 188.958C166.528 188.958 156.181 199.329 156.181 212.122C156.181 224.916 166.528 235.287 179.292 235.287Z" fill="#F5F5F5"/>
<path d="M192.005 214.407C192.005 222.112 186.482 225.906 179.311 225.906C172.14 225.906 166.035 222.115 166.035 214.407C166.035 206.699 171.849 200.454 179.02 200.454C186.191 200.454 192.005 206.699 192.005 214.407Z" fill="#333333"/>
<path d="M179.311 235.378C183.827 235.386 188.245 234.06 192.015 231.568C191.161 226.902 187.923 226.627 187.923 226.627H170.052C170.052 226.627 166.994 226.877 166.038 231.17C169.922 233.913 174.559 235.383 179.311 235.378Z" fill="#6C63FF"/>
<path opacity="0.1" d="M175.475 220.946H182.624V226.877C182.624 227.324 182.536 227.765 182.365 228.177C182.194 228.589 181.944 228.963 181.628 229.278C181.312 229.592 180.937 229.841 180.525 230.01C180.113 230.179 179.671 230.264 179.226 230.261H178.826C177.935 230.255 177.083 229.895 176.455 229.261C175.827 228.627 175.475 227.77 175.475 226.877V220.946Z" fill="black"/>
<path d="M176.1 220.673H181.962C182.132 220.673 182.296 220.741 182.417 220.862C182.538 220.983 182.606 221.148 182.606 221.319V226.627C182.606 227.524 182.25 228.385 181.617 229.02C180.984 229.654 180.125 230.011 179.229 230.011H178.829C177.938 230.005 177.085 229.646 176.456 229.012C175.828 228.378 175.475 227.52 175.475 226.627V221.328C175.473 221.159 175.537 220.995 175.654 220.872C175.771 220.75 175.931 220.678 176.1 220.673Z" fill="#FDA57D"/>
<path opacity="0.1" d="M175.481 223.653C177.786 224.516 180.322 224.523 182.631 223.672V222.792H175.481V223.653Z" fill="black"/>
<path d="M179.067 224.129C184.724 224.129 189.311 219.532 189.311 213.861C189.311 208.191 184.724 203.594 179.067 203.594C173.409 203.594 168.823 208.191 168.823 213.861C168.823 219.532 173.409 224.129 179.067 224.129Z" fill="#FDA57D"/>
<path opacity="0.1" d="M167.26 214.535C167.26 214.535 173.64 213.761 178.473 207.557C178.473 207.557 184.853 214.598 189.298 213.824C189.298 213.824 191.877 211.11 189.298 208.397C186.719 205.683 184.722 202.262 181.308 202.713C177.895 203.164 173.703 203.358 171.899 204.975C170.095 206.592 167.26 214.535 167.26 214.535Z" fill="black"/>
<path d="M167.26 214.407C167.26 214.407 173.64 213.633 178.473 207.429C178.473 207.429 184.853 214.469 189.298 213.695C189.298 213.695 191.877 210.982 189.298 208.268C186.719 205.555 184.722 202.133 181.308 202.585C177.895 203.036 173.703 203.23 171.899 204.847C170.095 206.464 167.26 214.407 167.26 214.407Z" fill="#333333"/>
<path d="M168.817 215.644C169.343 215.644 169.77 214.842 169.77 213.852C169.77 212.862 169.343 212.06 168.817 212.06C168.29 212.06 167.863 212.862 167.863 213.852C167.863 214.842 168.29 215.644 168.817 215.644Z" fill="#FDA57D"/>
<path d="M189.311 215.644C189.837 215.644 190.264 214.842 190.264 213.852C190.264 212.862 189.837 212.06 189.311 212.06C188.784 212.06 188.357 212.862 188.357 213.852C188.357 214.842 188.784 215.644 189.311 215.644Z" fill="#FDA57D"/>
<g opacity="0.5">
<path opacity="0.5" d="M279.23 237.628C292.27 237.628 302.841 227.032 302.841 213.962C302.841 200.891 292.27 190.296 279.23 190.296C266.19 190.296 255.619 200.891 255.619 213.962C255.619 227.032 266.19 237.628 279.23 237.628Z" fill="url(#paint1_linear)"/>
</g>
<path d="M279.277 236.976C292.04 236.976 302.387 226.605 302.387 213.811C302.387 201.018 292.04 190.647 279.277 190.647C266.513 190.647 256.166 201.018 256.166 213.811C256.166 226.605 266.513 236.976 279.277 236.976Z" fill="#F5F5F5"/>
<path d="M279.296 237.067C283.812 237.074 288.23 235.749 292 233.257C291.149 228.591 287.908 228.325 287.908 228.325H270.027C270.027 228.325 266.97 228.576 266.013 232.868C269.901 235.61 274.542 237.077 279.296 237.067Z" fill="#6C63FF"/>
<path d="M279.052 224.505C285.213 224.505 290.208 219.499 290.208 213.323C290.208 207.146 285.213 202.14 279.052 202.14C272.89 202.14 267.895 207.146 267.895 213.323C267.895 219.499 272.89 224.505 279.052 224.505Z" fill="#72351C"/>
<path opacity="0.1" d="M275.454 222.635H282.603V228.566C282.603 229.011 282.516 229.451 282.347 229.862C282.177 230.273 281.929 230.646 281.615 230.961C281.302 231.276 280.929 231.525 280.52 231.695C280.11 231.866 279.671 231.953 279.227 231.953H278.827C277.931 231.953 277.073 231.597 276.44 230.962C275.806 230.328 275.451 229.467 275.451 228.569V222.635H275.454Z" fill="black"/>
<path d="M276.098 222.368H281.959C282.13 222.368 282.294 222.436 282.414 222.557C282.535 222.679 282.603 222.843 282.603 223.014V228.3C282.603 228.744 282.516 229.184 282.346 229.595C282.176 230.005 281.928 230.378 281.614 230.693C281.301 231.007 280.928 231.256 280.519 231.426C280.109 231.596 279.67 231.684 279.227 231.684H278.827C278.383 231.684 277.944 231.596 277.535 231.426C277.125 231.256 276.753 231.007 276.44 230.693C276.126 230.378 275.877 230.005 275.708 229.595C275.538 229.184 275.451 228.744 275.451 228.3V223.014C275.451 222.843 275.519 222.679 275.639 222.557C275.76 222.436 275.924 222.368 276.095 222.368H276.098Z" fill="#FDA57D"/>
<path opacity="0.1" d="M275.466 225.342C277.77 226.205 280.307 226.211 282.615 225.361V224.48H275.466V225.342Z" fill="black"/>
<path d="M279.052 225.818C284.709 225.818 289.296 221.221 289.296 215.55C289.296 209.879 284.709 205.282 279.052 205.282C273.394 205.282 268.808 209.879 268.808 215.55C268.808 221.221 273.394 225.818 279.052 225.818Z" fill="#FDA57D"/>
<path opacity="0.1" d="M271.756 206.21C271.756 206.21 276.073 214.983 288.255 209.892L285.419 205.436L280.393 203.628L271.756 206.21Z" fill="black"/>
<path d="M271.756 206.081C271.756 206.081 276.073 214.855 288.255 209.763L285.419 205.32L280.393 203.512L271.756 206.081Z" fill="#72351C"/>
<path d="M271.718 205.486C272.009 204.583 272.512 203.763 273.184 203.095C275.201 201.099 278.499 200.676 280.199 198.395C280.292 198.557 280.351 198.736 280.371 198.921C280.39 199.106 280.371 199.294 280.314 199.471C280.257 199.648 280.163 199.811 280.039 199.95C279.914 200.089 279.762 200.199 279.593 200.275C281.215 200.275 283.097 200.122 284.016 198.784C284.243 199.313 284.315 199.897 284.225 200.466C284.134 201.035 283.884 201.567 283.503 201.999C284.941 202.065 286.479 203.042 286.57 204.483C286.632 205.442 286.032 206.363 285.244 206.902C284.427 207.411 283.518 207.753 282.569 207.911C279.83 208.516 269.933 211.051 271.718 205.486Z" fill="#72351C"/>
<path d="M289.299 215.641H289.027L283.744 220.341C278.652 217.951 274.916 220.341 274.916 220.341L269.371 215.836L268.811 215.904C268.878 218.606 270.004 221.172 271.945 223.046C273.887 224.921 276.488 225.953 279.183 225.918C281.879 225.883 284.452 224.785 286.345 222.861C288.238 220.938 289.298 218.343 289.296 215.641H289.299ZM279.039 222.165C277.045 222.165 275.432 221.761 275.432 221.259C275.432 220.758 277.048 220.354 279.039 220.354C281.031 220.354 282.647 220.758 282.647 221.259C282.647 221.761 281.031 222.165 279.039 222.165Z" fill="#72351C"/>
<path d="M268.805 217.333C269.331 217.333 269.758 216.531 269.758 215.541C269.758 214.551 269.331 213.749 268.805 213.749C268.278 213.749 267.851 214.551 267.851 215.541C267.851 216.531 268.278 217.333 268.805 217.333Z" fill="#FDA57D"/>
<path d="M289.296 217.333C289.822 217.333 290.249 216.531 290.249 215.541C290.249 214.551 289.822 213.749 289.296 213.749C288.769 213.749 288.342 214.551 288.342 215.541C288.342 216.531 288.769 217.333 289.296 217.333Z" fill="#FDA57D"/>
<g opacity="0.5">
<path opacity="0.5" d="M229.242 276.453C242.282 276.453 252.853 265.857 252.853 252.787C252.853 239.717 242.282 229.121 229.242 229.121C216.202 229.121 205.632 239.717 205.632 252.787C205.632 265.857 216.202 276.453 229.242 276.453Z" fill="url(#paint2_linear)"/>
</g>
<path d="M229.242 275.823C242.006 275.823 252.353 265.452 252.353 252.658C252.353 239.865 242.006 229.494 229.242 229.494C216.478 229.494 206.132 239.865 206.132 252.658C206.132 265.452 216.478 275.823 229.242 275.823Z" fill="#F5F5F5"/>
<path d="M220.221 252.862C220.221 252.862 217.601 265.803 216.157 265.082C216.157 265.082 229.949 277.023 242.128 265.082C242.128 265.082 239.983 255.964 236.885 252.862H220.221Z" fill="#333333"/>
<path d="M229.305 275.892C233.821 275.899 238.239 274.574 242.009 272.082C241.159 267.416 237.917 267.15 237.917 267.15H220.049C220.049 267.15 216.991 267.401 216.035 271.693C219.92 274.432 224.555 275.899 229.305 275.892Z" fill="#6C63FF"/>
<path d="M229.064 262.416C234.721 262.416 239.308 257.819 239.308 252.148C239.308 246.477 234.721 241.88 229.064 241.88C223.406 241.88 218.82 246.477 218.82 252.148C218.82 257.819 223.406 262.416 229.064 262.416Z" fill="#333333"/>
<path opacity="0.1" d="M225.463 261.46H232.612V267.391C232.612 268.288 232.257 269.148 231.625 269.782C230.994 270.416 230.136 270.774 229.242 270.775H228.836C227.94 270.775 227.082 270.419 226.449 269.784C225.815 269.15 225.46 268.289 225.46 267.391V261.46H225.463Z" fill="black"/>
<path d="M226.116 261.194H231.977C232.148 261.194 232.312 261.262 232.433 261.383C232.554 261.504 232.621 261.668 232.621 261.839V267.125C232.617 268.02 232.259 268.878 231.626 269.509C230.993 270.14 230.135 270.494 229.242 270.493H228.836C227.94 270.493 227.082 270.137 226.449 269.502C225.815 268.868 225.46 268.007 225.46 267.109V261.839C225.46 261.668 225.528 261.504 225.648 261.383C225.769 261.262 225.933 261.194 226.104 261.194H226.116Z" fill="#BE7C5E"/>
<path opacity="0.1" d="M225.475 264.164C227.78 265.027 230.316 265.033 232.624 264.183V263.302H225.475V264.164Z" fill="black"/>
<path d="M229.064 264.643C234.721 264.643 239.308 260.046 239.308 254.375C239.308 248.705 234.721 244.108 229.064 244.108C223.406 244.108 218.82 248.705 218.82 254.375C218.82 260.046 223.406 264.643 229.064 264.643Z" fill="#BE7C5E"/>
<path d="M219.267 250.474H238.805C238.805 250.474 237.135 242.566 229.739 243.07C222.343 243.575 219.267 250.474 219.267 250.474Z" fill="#333333"/>
<path d="M219.03 255.729C219.556 255.729 219.983 254.927 219.983 253.937C219.983 252.947 219.556 252.145 219.03 252.145C218.503 252.145 218.076 252.947 218.076 253.937C218.076 254.927 218.503 255.729 219.03 255.729Z" fill="#BE7C5E"/>
<path d="M239.042 255.729C239.569 255.729 239.996 254.927 239.996 253.937C239.996 252.947 239.569 252.145 239.042 252.145C238.515 252.145 238.089 252.947 238.089 253.937C238.089 254.927 238.515 255.729 239.042 255.729Z" fill="#BE7C5E"/>
<path opacity="0.1" d="M219.267 250.753H238.805C238.805 250.753 237.135 242.845 229.739 243.349C222.343 243.854 219.267 250.753 219.267 250.753Z" fill="black"/>
<path d="M229.242 231.217C233.498 231.217 237.659 232.482 241.198 234.852C244.737 237.222 247.495 240.591 249.123 244.532C250.752 248.474 251.178 252.811 250.348 256.995C249.518 261.179 247.468 265.022 244.459 268.039C241.449 271.056 237.615 273.11 233.44 273.942C229.266 274.774 224.939 274.347 221.007 272.715C217.075 271.082 213.714 268.318 211.35 264.77C208.985 261.223 207.723 257.053 207.723 252.787C207.723 247.066 209.99 241.58 214.026 237.535C218.061 233.489 223.535 231.217 229.242 231.217ZM229.242 225.89C223.935 225.89 218.747 227.468 214.334 230.423C209.922 233.379 206.482 237.579 204.451 242.494C202.42 247.409 201.889 252.817 202.924 258.034C203.96 263.251 206.515 268.044 210.268 271.806C214.021 275.567 218.802 278.129 224.007 279.167C229.212 280.204 234.608 279.672 239.511 277.636C244.414 275.6 248.605 272.153 251.553 267.73C254.502 263.307 256.076 258.106 256.076 252.787C256.067 245.656 253.238 238.82 248.207 233.777C243.177 228.735 236.356 225.899 229.242 225.89Z" fill="#CCCCCC"/>
<path d="M231.559 219.602H225.269V226.238H231.559V219.602Z" fill="#CCCCCC"/>
<path d="M242.775 222.294L239.365 227.982L244.757 231.229L248.167 225.541L242.775 222.294Z" fill="#CCCCCC"/>
<path d="M256.174 233.16L250.383 236.378L253.432 241.891L259.223 238.674L256.174 233.16Z" fill="#CCCCCC"/>
<path d="M253.81 263.366L250.477 268.712L256.092 272.229L259.425 266.883L253.81 263.366Z" fill="#CCCCCC"/>
<path d="M202.307 233.161L199.258 238.675L205.049 241.893L208.098 236.379L202.307 233.161Z" fill="#CCCCCC"/>
<path d="M204.676 263.367L199.061 266.884L202.394 272.23L208.009 268.713L204.676 263.367Z" fill="#CCCCCC"/>
<path d="M215.704 222.292L210.313 225.539L213.723 231.227L219.114 227.981L215.704 222.292Z" fill="#CCCCCC"/>
<path d="M231.559 279.333H225.269V285.969H231.559V279.333Z" fill="#CCCCCC"/>
<path d="M244.757 274.346L239.366 277.593L242.776 283.281L248.167 280.034L244.757 274.346Z" fill="#CCCCCC"/>
<path d="M215.159 274.315L211.717 280.022L217.126 283.3L220.568 277.593L215.159 274.315Z" fill="#CCCCCC"/>
<path d="M203.087 250.133H195.472V255.773H203.087V250.133Z" fill="#CCCCCC"/>
<path d="M255.394 255.77H263.009V250.13H255.394V255.77Z" fill="#CCCCCC"/>
<path d="M279.23 192.392C283.486 192.392 287.647 193.657 291.186 196.027C294.724 198.397 297.483 201.766 299.111 205.707C300.74 209.649 301.166 213.986 300.336 218.17C299.506 222.354 297.456 226.197 294.446 229.214C291.437 232.231 287.603 234.285 283.428 235.117C279.254 235.949 274.927 235.522 270.995 233.89C267.063 232.257 263.702 229.492 261.337 225.945C258.973 222.398 257.711 218.228 257.711 213.962C257.711 208.241 259.978 202.755 264.014 198.71C268.049 194.664 273.523 192.392 279.23 192.392ZM279.23 187.065C273.923 187.065 268.735 188.643 264.322 191.598C259.909 194.553 256.47 198.754 254.439 203.669C252.408 208.584 251.877 213.992 252.912 219.209C253.947 224.426 256.503 229.219 260.256 232.98C264.009 236.742 268.79 239.304 273.995 240.341C279.2 241.379 284.596 240.847 289.499 238.811C294.402 236.775 298.593 233.328 301.541 228.905C304.49 224.482 306.064 219.281 306.064 213.962C306.055 206.831 303.226 199.994 298.195 194.952C293.165 189.91 286.344 187.073 279.23 187.065Z" fill="#CCCCCC"/>
<path d="M281.546 180.777H275.257V187.413H281.546V180.777Z" fill="#CCCCCC"/>
<path d="M292.764 183.467L289.354 189.155L294.745 192.402L298.155 186.714L292.764 183.467Z" fill="#CCCCCC"/>
<path d="M306.165 194.336L300.374 197.554L303.423 203.067L309.214 199.85L306.165 194.336Z" fill="#CCCCCC"/>
<path d="M303.797 224.543L300.464 229.889L306.079 233.406L309.412 228.06L303.797 224.543Z" fill="#CCCCCC"/>
<path d="M252.3 194.336L249.251 199.849L255.041 203.067L258.091 197.553L252.3 194.336Z" fill="#CCCCCC"/>
<path d="M254.663 224.542L249.048 228.058L252.381 233.405L257.996 229.888L254.663 224.542Z" fill="#CCCCCC"/>
<path d="M265.695 183.465L260.304 186.712L263.714 192.4L269.105 189.153L265.695 183.465Z" fill="#CCCCCC"/>
<path d="M281.546 240.507H275.257V247.144H281.546V240.507Z" fill="#CCCCCC"/>
<path d="M294.748 235.522L289.356 238.769L292.766 244.457L298.158 241.21L294.748 235.522Z" fill="#CCCCCC"/>
<path d="M265.287 235.153L261.844 240.86L267.253 244.138L270.696 238.431L265.287 235.153Z" fill="#CCCCCC"/>
<path d="M253.078 211.308H245.463V216.948H253.078V211.308Z" fill="#CCCCCC"/>
<path d="M305.385 216.948H313V211.308H305.385V216.948Z" fill="#CCCCCC"/>
<path d="M179.239 190.731C179.491 190.731 179.744 190.731 179.998 190.731C185.639 190.924 190.978 193.33 194.866 197.431C198.753 201.533 200.877 207 200.781 212.657C200.685 218.313 198.375 223.705 194.351 227.671C190.326 231.637 184.908 233.859 179.264 233.858C179.012 233.858 178.758 233.858 178.504 233.858C172.864 233.666 167.524 231.259 163.637 227.158C159.749 223.057 157.625 217.589 157.721 211.933C157.818 206.277 160.127 200.885 164.152 196.919C168.177 192.953 173.595 190.731 179.239 190.731ZM179.239 185.405C172.201 185.404 165.446 188.176 160.427 193.121C155.409 198.066 152.529 204.789 152.409 211.842C152.289 218.895 154.938 225.713 159.785 230.827C164.632 235.941 171.29 238.941 178.323 239.182C178.635 239.182 178.948 239.198 179.261 239.198C186.284 239.177 193.019 236.397 198.021 231.455C203.022 226.513 205.892 219.802 206.012 212.763C206.133 205.725 203.496 198.919 198.667 193.807C193.837 188.696 187.201 185.686 180.183 185.423C179.87 185.423 179.558 185.408 179.245 185.408L179.239 185.405Z" fill="#CCCCCC"/>
<path d="M176.435 179.001L176.205 185.633L182.491 185.852L182.721 179.22L176.435 179.001Z" fill="#CCCCCC"/>
<path d="M193.837 182.3L190.232 187.866L195.508 191.299L199.113 185.732L193.837 182.3Z" fill="#CCCCCC"/>
<path d="M206.849 193.632L200.95 196.646L203.807 202.263L209.705 199.249L206.849 193.632Z" fill="#CCCCCC"/>
<path d="M203.443 223.736L199.927 228.963L205.416 232.673L208.932 227.446L203.443 223.736Z" fill="#CCCCCC"/>
<path d="M153.015 191.754L149.777 197.159L155.452 200.576L158.691 195.171L153.015 191.754Z" fill="#CCCCCC"/>
<path d="M154.966 222.327L149.206 225.645L152.35 231.13L158.11 227.812L154.966 222.327Z" fill="#CCCCCC"/>
<path d="M166.782 181.362L161.282 184.419L164.493 190.223L169.993 187.166L166.782 181.362Z" fill="#CCCCCC"/>
<path d="M174.368 238.697L174.138 245.33L180.423 245.549L180.653 238.916L174.368 238.697Z" fill="#CCCCCC"/>
<path d="M194.013 234.395L188.512 237.453L191.723 243.257L197.223 240.199L194.013 234.395Z" fill="#CCCCCC"/>
<path d="M163 233.31L159.395 238.877L164.671 242.309L168.276 236.743L163 233.31Z" fill="#CCCCCC"/>
<path d="M153.201 208.742L145.59 208.477L145.395 214.113L153.005 214.378L153.201 208.742Z" fill="#CCCCCC"/>
<path d="M205.285 216.187L212.896 216.452L213.091 210.815L205.481 210.55L205.285 216.187Z" fill="#CCCCCC"/>
<g opacity="0.5">
<path opacity="0.5" d="M77.8566 316.575C89.3754 316.575 98.7132 307.215 98.7132 295.67C98.7132 284.124 89.3754 274.764 77.8566 274.764C66.3378 274.764 57 284.124 57 295.67C57 307.215 66.3378 316.575 77.8566 316.575Z" fill="url(#paint3_linear)"/>
</g>
<path d="M77.8973 316.002C89.1727 316.002 98.3132 306.84 98.3132 295.538C98.3132 284.236 89.1727 275.074 77.8973 275.074C66.6219 275.074 57.4814 284.236 57.4814 295.538C57.4814 306.84 66.6219 316.002 77.8973 316.002Z" fill="#E6E6E6"/>
<path d="M77.9129 316.083C81.9021 316.09 85.8051 314.92 89.1352 312.718C88.3818 308.598 85.5184 308.363 85.5184 308.363H69.7321C69.7321 308.363 67.0313 308.585 66.1873 312.377C69.6201 314.796 73.7162 316.091 77.9129 316.083Z" fill="#CCCCCC"/>
<path d="M77.7002 304.985C83.1437 304.985 87.5565 300.562 87.5565 295.106C87.5565 289.649 83.1437 285.226 77.7002 285.226C72.2568 285.226 67.844 289.649 67.844 295.106C67.844 300.562 72.2568 304.985 77.7002 304.985Z" fill="#CCCCCC"/>
<path opacity="0.1" d="M74.5056 303.334H80.8201V308.573C80.8201 309.365 80.5059 310.126 79.9467 310.686C79.3874 311.247 78.6288 311.562 77.8379 311.562H77.5003C77.1076 311.563 76.7185 311.487 76.3552 311.338C75.992 311.188 75.6617 310.969 75.3835 310.691C75.1052 310.413 74.8845 310.083 74.7338 309.719C74.5832 309.356 74.5056 308.966 74.5056 308.573V303.334Z" fill="black"/>
<path d="M74.7088 303.099H80.6482C80.6979 303.099 80.7456 303.119 80.7808 303.154C80.816 303.189 80.8357 303.237 80.8357 303.287V308.338C80.8357 309.13 80.5216 309.891 79.9623 310.451C79.403 311.012 78.6445 311.327 77.8536 311.327H77.5003C77.1076 311.329 76.7185 311.252 76.3552 311.103C75.992 310.953 75.6617 310.734 75.3835 310.456C75.1052 310.178 74.8845 309.848 74.7338 309.484C74.5832 309.121 74.5056 308.731 74.5056 308.338V303.287C74.5056 303.237 74.5254 303.189 74.5606 303.154C74.5957 303.119 74.6434 303.099 74.6932 303.099H74.7088Z" fill="#CCCCCC"/>
<path opacity="0.1" d="M74.5305 305.721C76.5654 306.484 78.8056 306.491 80.845 305.74V304.96H74.5305V305.721Z" fill="black"/>
<path d="M77.7004 306.144C82.6984 306.144 86.7501 302.083 86.7501 297.073C86.7501 292.064 82.6984 288.002 77.7004 288.002C72.7023 288.002 68.6506 292.064 68.6506 297.073C68.6506 302.083 72.7023 306.144 77.7004 306.144Z" fill="#CCCCCC"/>
<path opacity="0.1" d="M71.2546 288.823C71.2546 288.823 75.0683 296.585 85.828 292.076L83.3272 288.137L78.8852 286.539L71.2546 288.823Z" fill="black"/>
<path d="M71.2546 288.707C71.2546 288.707 75.0683 296.469 85.828 291.96L83.3272 288.021L78.8852 286.423L71.2546 288.707Z" fill="#CCCCCC"/>
<path d="M71.214 288.184C71.4717 287.386 71.9165 286.662 72.5113 286.072C74.2931 284.308 77.2003 283.935 78.707 281.924C78.7886 282.066 78.8395 282.224 78.8564 282.387C78.8733 282.551 78.8559 282.716 78.8052 282.872C78.7545 283.028 78.6718 283.172 78.5622 283.294C78.4527 283.416 78.3189 283.514 78.1693 283.581C79.601 283.581 81.2672 283.447 82.0768 282.262C82.2771 282.73 82.3408 283.245 82.2606 283.747C82.1803 284.25 81.9594 284.719 81.6235 285.101C82.8958 285.157 84.2525 286.022 84.3338 287.294C84.39 288.143 83.8586 288.945 83.1615 289.431C82.4395 289.881 81.6366 290.184 80.7983 290.324C78.3881 290.86 69.651 293.097 71.214 288.184Z" fill="#CCCCCC"/>
<path d="M68.6444 298.65C69.1088 298.65 69.4852 297.941 69.4852 297.067C69.4852 296.193 69.1088 295.485 68.6444 295.485C68.1799 295.485 67.8035 296.193 67.8035 297.067C67.8035 297.941 68.1799 298.65 68.6444 298.65Z" fill="#CCCCCC"/>
<path d="M86.7501 298.65C87.2145 298.65 87.591 297.941 87.591 297.067C87.591 296.193 87.2145 295.485 86.7501 295.485C86.2857 295.485 85.9092 296.193 85.9092 297.067C85.9092 297.941 86.2857 298.65 86.7501 298.65Z" fill="#CCCCCC"/>
<g opacity="0.5">
<path opacity="0.5" d="M81.1669 314.586C92.6857 314.586 102.024 305.226 102.024 293.68C102.024 282.134 92.6857 272.774 81.1669 272.774C69.6481 272.774 60.3103 282.134 60.3103 293.68C60.3103 305.226 69.6481 314.586 81.1669 314.586Z" fill="url(#paint4_linear)"/>
</g>
<path d="M81.2076 314.009C92.483 314.009 101.623 304.847 101.623 293.545C101.623 282.243 92.483 273.081 81.2076 273.081C69.9322 273.081 60.7917 282.243 60.7917 293.545C60.7917 304.847 69.9322 314.009 81.2076 314.009Z" fill="#F5F5F5"/>
<path d="M81.217 314.091C85.2063 314.097 89.1093 312.927 92.4394 310.725C91.686 306.605 88.8226 306.37 88.8226 306.37H73.0363C73.0363 306.37 70.3355 306.592 69.4915 310.384C72.9243 312.803 77.0204 314.098 81.217 314.091Z" fill="#CCCCCC"/>
<path d="M81.0108 302.992C86.4543 302.992 90.867 298.569 90.867 293.113C90.867 287.657 86.4543 283.234 81.0108 283.234C75.5673 283.234 71.1545 287.657 71.1545 293.113C71.1545 298.569 75.5673 302.992 81.0108 302.992Z" fill="#CCCCCC"/>
<path opacity="0.1" d="M77.8284 301.341H84.1429V306.58C84.1429 307.373 83.8287 308.133 83.2694 308.694C82.7101 309.254 81.9516 309.569 81.1607 309.569H80.8106C80.0196 309.569 79.2611 309.254 78.7018 308.694C78.1426 308.133 77.8284 307.373 77.8284 306.58V301.341Z" fill="black"/>
<path d="M78.0191 301.106H83.9585C84.0082 301.106 84.0559 301.126 84.0911 301.161C84.1263 301.196 84.146 301.244 84.146 301.294V306.345C84.1477 306.739 84.0718 307.129 83.9226 307.493C83.7735 307.857 83.5541 308.188 83.277 308.467C82.9999 308.746 82.6706 308.967 82.308 309.118C81.9453 309.269 81.5565 309.347 81.1638 309.347H80.8106C80.0197 309.347 79.2611 309.032 78.7019 308.471C78.1426 307.911 77.8284 307.15 77.8284 306.357V301.297C77.828 301.272 77.8326 301.247 77.842 301.223C77.8515 301.2 77.8655 301.179 77.8833 301.161C77.9011 301.143 77.9223 301.129 77.9456 301.12C77.9689 301.11 77.9939 301.106 78.0191 301.106Z" fill="#CCCCCC"/>
<path opacity="0.1" d="M77.8411 303.732C79.876 304.494 82.1162 304.501 84.1556 303.751V302.974H77.8411V303.732Z" fill="black"/>
<path d="M81.0107 304.155C86.0087 304.155 90.0604 300.093 90.0604 295.084C90.0604 290.074 86.0087 286.013 81.0107 286.013C76.0126 286.013 71.9609 290.074 71.9609 295.084C71.9609 300.093 76.0126 304.155 81.0107 304.155Z" fill="#CCCCCC"/>
<path opacity="0.1" d="M74.5649 286.831C74.5649 286.831 78.3787 294.592 89.1383 290.083L86.6375 286.144L82.1955 284.546L74.5649 286.831Z" fill="black"/>
<path d="M74.5649 286.718C74.5649 286.718 78.3787 294.479 89.1383 289.97L86.6375 286.032L82.1955 284.434L74.5649 286.718Z" fill="#CCCCCC"/>
<path d="M74.5306 286.194C74.7882 285.397 75.2331 284.672 75.8278 284.083C77.6097 282.319 80.5168 281.946 82.0236 279.934C82.1051 280.077 82.156 280.234 82.1729 280.398C82.1899 280.561 82.1724 280.726 82.1218 280.882C82.0711 281.039 81.9883 281.182 81.8788 281.305C81.7693 281.427 81.6354 281.525 81.4859 281.592C82.9176 281.592 84.5837 281.457 85.3934 280.272C85.5936 280.74 85.6574 281.255 85.5771 281.758C85.4969 282.26 85.276 282.73 84.9401 283.111C86.2124 283.168 87.5691 284.032 87.6503 285.305C87.7066 286.154 87.1752 286.956 86.4781 287.442C85.7561 287.891 84.9532 288.194 84.1148 288.335C81.6985 288.87 72.9519 291.108 74.5306 286.194Z" fill="#CCCCCC"/>
<path d="M71.9547 296.657C72.4191 296.657 72.7956 295.948 72.7956 295.074C72.7956 294.201 72.4191 293.492 71.9547 293.492C71.4902 293.492 71.1138 294.201 71.1138 295.074C71.1138 295.948 71.4902 296.657 71.9547 296.657Z" fill="#CCCCCC"/>
<path d="M90.0604 296.657C90.5248 296.657 90.9013 295.948 90.9013 295.074C90.9013 294.201 90.5248 293.492 90.0604 293.492C89.596 293.492 89.2195 294.201 89.2195 295.074C89.2195 295.948 89.596 296.657 90.0604 296.657Z" fill="#CCCCCC"/>
<path d="M158.742 222.284V223.287L155.928 223.036V229.303L148.567 240.116L148.113 239.849L147.113 241.103L156.625 247.125V244.866L156.091 244.553C156.757 242.062 159.483 232.129 161.039 230.816C161.039 230.816 163.853 228.808 165.372 226.047C166.891 223.287 166.128 213.752 158.742 222.284Z" fill="url(#paint5_linear)"/>
<path d="M143.846 245.953C143.846 245.953 133.649 243.794 128.054 241.519C125.443 240.451 122.664 239.854 119.845 239.755L113.727 239.555L110.68 237.722L111.617 235.256C111.711 235.215 111.805 235.171 111.899 235.118L111.986 234.589C112.475 234.468 112.957 234.321 113.43 234.15C113.361 234.747 113.434 235.352 113.644 235.916C113.854 236.479 114.194 236.984 114.637 237.39C114.988 237.781 115.418 238.093 115.898 238.306C116.378 238.519 116.897 238.627 117.422 238.624C117.942 238.626 118.457 238.519 118.934 238.311C119.411 238.103 119.839 237.798 120.192 237.415C120.544 237.032 120.814 236.579 120.983 236.086C121.152 235.593 121.217 235.07 121.174 234.551L120.736 229.017L120.514 229.133L120.486 228.764L120.405 228.808C122.097 226.402 123.027 223.541 123.071 220.597C123.115 217.654 122.272 214.766 120.651 212.311L120.889 212.091V205.997C120.808 205.919 120.723 205.846 120.639 205.774V205.746C115.594 201.046 108.66 201.416 103.646 202.613C101.788 203.054 100.112 204.063 98.8506 205.501C97.5894 206.938 96.8051 208.733 96.6063 210.637C89.9136 212.467 92.1487 215.986 92.0424 217.346C91.5235 223.973 93.6523 227.871 95.9655 230.127C96.927 231.119 98.0509 231.939 99.2884 232.552L97.8223 235.488L97.3941 235.472L96.2218 238.975H96.1656L81.6453 248.833L71.614 259.925C71.1784 260.407 70.8969 261.008 70.806 261.652C70.715 262.296 70.8188 262.953 71.1038 263.537C71.3889 264.121 71.8421 264.607 72.405 264.93C72.968 265.253 73.6147 265.4 74.2617 265.352L84.5244 264.575C84.5244 264.575 91.7829 278.812 89.526 293.05C88.7695 297.835 89.0852 300.761 89.8386 302.544C89.6293 304.472 89.1011 306.352 88.2756 308.106C85.5216 313.878 85.5216 319.9 89.0258 326.925L90.0261 363.309C90.0261 363.309 91.2765 380.373 90.0261 383.886C88.7757 387.398 90.5263 404.212 90.5263 404.212H90.2825V413.499L109.038 414C109.038 414 113.415 411.92 114.199 410.347L123.627 413.251C123.627 413.251 133.999 411.459 127.932 408.984C123.402 407.135 122.277 404.5 121.993 403.278L136.819 360.549C136.819 360.549 134.065 324.164 124.053 311.615L123.037 304.217H123.177L125.306 261.015L125.481 261.04L125.431 261.056C132.505 262.127 138.188 261.56 141.955 260.799C143.59 260.507 145.193 260.056 146.741 259.455L147.022 259.342H147.057H147.082C148.243 258.865 149.338 258.24 150.339 257.481L156.591 247.896L147.079 241.316L143.846 245.953ZM104.543 392.906L109.301 359.533V342.482L117.813 360.298L108.654 398.907L108.173 398.772L106.059 406.377C105.369 405.805 104.845 405.057 104.543 404.212V392.906Z" fill="url(#paint6_linear)"/>
<path d="M83.5866 251.38C83.5866 251.38 69.4602 254.711 71.9548 275.115C71.9548 275.115 77.0658 273.304 78.8507 273.097C80.545 272.9 85.6654 273.451 85.6654 273.451L88.0943 264.227L83.5866 251.38Z" fill="#535461"/>
<path d="M154.365 226.871V232.862L147.247 243.315L154.365 247.955C154.365 247.955 157.529 235.735 159.232 234.297C159.232 234.297 161.911 232.379 163.371 229.744C164.831 227.109 164.103 218.004 157.041 226.15V227.109L154.365 226.871Z" fill="#FDA57D"/>
<path d="M97.7003 241.156L100.514 235.516C100.597 235.35 100.722 235.209 100.877 235.108C101.032 235.007 101.211 234.949 101.395 234.939L112.099 234.391C112.273 234.382 112.446 234.417 112.603 234.492C112.761 234.567 112.896 234.681 112.999 234.822C113.101 234.963 113.166 235.128 113.189 235.301C113.211 235.475 113.19 235.651 113.127 235.814L110.367 242.967C110.285 243.179 110.137 243.358 109.945 243.478C109.752 243.597 109.526 243.651 109.301 243.631L98.5412 242.672C98.371 242.658 98.2069 242.601 98.0635 242.508C97.9201 242.415 97.8017 242.288 97.7186 242.138C97.6356 241.989 97.5905 241.821 97.5873 241.649C97.5841 241.478 97.623 241.309 97.7003 241.156Z" fill="#FDA57D"/>
<path d="M98.4944 238.731L96.6782 244.076L115.347 243.406L108.176 239.091L98.4944 238.731Z" fill="#EDEEF9"/>
<path d="M145.944 244.123L146.9 242.926L155.025 247.717V249.873L145.944 244.123Z" fill="#EDEEF9"/>
<path d="M91.0295 297.127C91.0295 297.127 92.3956 302.582 89.7792 308.093C87.1627 313.605 87.1502 319.355 90.495 326.063L91.4515 360.805C91.4515 360.805 92.6457 377.099 91.4515 380.451C90.2574 383.804 91.9298 399.859 91.9298 399.859H105.315V389.081L109.857 357.215V340.921L117.985 357.932L108.654 397.227L120.845 402.259L136.144 358.173C136.144 358.173 133.515 323.431 123.952 311.452L122.168 298.38L91.0295 297.127Z" fill="#4D8AF0"/>
<path d="M91.6829 408.73V399.862H105.309C105.309 399.862 106.266 403.456 112.48 404.174C118.695 404.891 109.61 409.206 109.61 409.206L91.6829 408.73Z" fill="#333333"/>
<path d="M106.397 403.209L108.77 394.667L121.899 398.33C121.899 398.33 121.858 402.049 127.654 404.412C133.449 406.774 123.543 408.485 123.543 408.485L106.397 403.209Z" fill="#333333"/>
<path opacity="0.1" d="M122.167 299.11L91.0388 297.857C91.4234 299.717 91.5026 301.627 91.2733 303.512C92.6987 306.871 95.7528 305.95 95.7528 305.95L122.99 305.11L122.167 299.11Z" fill="black"/>
<path d="M97.3003 242.087L83.4365 251.487L86.1843 266.527C86.1843 266.527 93.1177 280.122 90.9639 293.718C88.8101 307.313 95.7436 305.22 95.7436 305.22L123.105 304.384L125.137 263.133C125.137 263.133 141.639 265.48 149.051 259.733L155.028 250.584L145.944 244.317L142.837 248.761C142.837 248.761 133.109 246.68 127.757 244.518C125.264 243.499 122.611 242.929 119.92 242.835L97.3003 242.087Z" fill="#535461"/>
<path opacity="0.1" d="M97.5379 308.457C97.5379 308.457 95.8655 316.842 105.425 330.741L97.5379 308.457Z" fill="black"/>
<path opacity="0.1" d="M125.265 263.171C125.265 263.171 136.738 259.339 141.758 259.339C146.778 259.339 145.941 261.513 145.941 261.513C145.941 261.513 137.935 265.088 125.265 263.171Z" fill="black"/>
<path opacity="0.1" d="M112.255 234.864L107.691 235.4C107.547 235.419 107.416 235.601 107.338 235.883C108.341 237.697 109.598 238.781 110.961 238.781C111.448 238.775 111.925 238.642 112.346 238.396L112.696 236.277C112.812 235.579 112.58 234.824 112.255 234.864Z" fill="black"/>
<path d="M109.07 238.311C116.77 238.311 123.012 232.054 123.012 224.336C123.012 216.618 116.77 210.362 109.07 210.362C101.37 210.362 95.1277 216.618 95.1277 224.336C95.1277 232.054 101.37 238.311 109.07 238.311Z" fill="#FDA57D"/>
<path opacity="0.1" d="M120.917 210.6V216.421L120.214 217.067C119.915 217.341 119.69 217.686 119.559 218.071C119.428 218.456 119.397 218.867 119.467 219.267C119.537 219.667 119.707 220.043 119.96 220.36C120.214 220.677 120.543 220.925 120.917 221.081C120.917 221.081 119.754 230.396 118.304 233.89L120.773 232.58L121.192 237.863C121.231 238.358 121.168 238.857 121.006 239.326C120.844 239.796 120.586 240.227 120.25 240.593C119.913 240.958 119.505 241.249 119.051 241.449C118.596 241.648 118.106 241.751 117.61 241.751C116.994 241.751 116.388 241.592 115.851 241.29C115.314 240.988 114.863 240.553 114.542 240.026C114.221 239.499 114.041 238.898 114.018 238.282C113.995 237.665 114.131 237.052 114.412 236.503C115.003 235.35 116.05 234.137 116.563 232.43C118.438 226.163 114.687 227.335 113.802 228.5C112.918 229.666 113.946 232.721 113.946 232.721C113.946 232.721 116.706 237.816 102.183 236.65C102.183 236.65 92.5988 234.613 93.6147 221.657C93.7179 220.36 91.5828 216.998 97.9723 215.253C98.1619 213.435 98.9105 211.721 100.115 210.348C101.319 208.976 102.919 208.013 104.693 207.592C109.489 206.467 116.109 206.106 120.917 210.6Z" fill="black"/>
<path d="M120.689 210.362V216.183L119.979 216.829C119.68 217.103 119.455 217.448 119.325 217.833C119.194 218.218 119.162 218.629 119.232 219.029C119.303 219.429 119.472 219.805 119.726 220.122C119.979 220.439 120.308 220.687 120.683 220.843C120.683 220.843 119.52 230.158 118.069 233.652L120.539 232.342L120.958 237.625C120.997 238.12 120.934 238.619 120.771 239.088C120.609 239.558 120.352 239.989 120.015 240.354C119.679 240.72 119.271 241.011 118.816 241.211C118.362 241.41 117.871 241.513 117.375 241.513C116.76 241.513 116.154 241.354 115.617 241.052C115.08 240.75 114.629 240.315 114.308 239.788C113.987 239.261 113.806 238.66 113.784 238.044C113.761 237.427 113.896 236.814 114.178 236.265C114.768 235.112 115.816 233.899 116.328 232.192C118.204 225.925 114.453 227.097 113.568 228.262C112.683 229.428 113.712 232.483 113.712 232.483C113.712 232.483 116.472 237.578 101.949 236.412C101.949 236.412 92.3644 234.375 93.3803 221.419C93.4835 220.122 91.3484 216.76 97.738 215.015C97.9275 213.197 98.6762 211.483 99.8803 210.11C101.084 208.738 102.684 207.774 104.459 207.354C109.251 206.226 115.872 205.865 120.689 210.362Z" fill="#72351C"/>
</g>
<defs>
<linearGradient id="paint0_linear" x1="179.245" y1="235.939" x2="179.245" y2="188.61" gradientUnits="userSpaceOnUse">
<stop stop-color="#808080" stop-opacity="0.25"/>
<stop offset="0.54" stop-color="#808080" stop-opacity="0.12"/>
<stop offset="1" stop-color="#808080" stop-opacity="0.1"/>
</linearGradient>
<linearGradient id="paint1_linear" x1="33825.7" y1="9046.14" x2="33825.7" y2="1896.62" gradientUnits="userSpaceOnUse">
<stop stop-color="#808080" stop-opacity="0.25"/>
<stop offset="0.54" stop-color="#808080" stop-opacity="0.12"/>
<stop offset="1" stop-color="#808080" stop-opacity="0.1"/>
</linearGradient>
<linearGradient id="paint2_linear" x1="26224.6" y1="14949.9" x2="26224.6" y2="7800.37" gradientUnits="userSpaceOnUse">
<stop stop-color="#808080" stop-opacity="0.25"/>
<stop offset="0.54" stop-color="#808080" stop-opacity="0.12"/>
<stop offset="1" stop-color="#808080" stop-opacity="0.1"/>
</linearGradient>
<linearGradient id="paint3_linear" x1="2840.11" y1="18632.8" x2="2840.11" y2="13053.5" gradientUnits="userSpaceOnUse">
<stop stop-color="#808080" stop-opacity="0.25"/>
<stop offset="0.54" stop-color="#808080" stop-opacity="0.12"/>
<stop offset="1" stop-color="#808080" stop-opacity="0.1"/>
</linearGradient>
<linearGradient id="paint4_linear" x1="3285.16" y1="18365.3" x2="3285.16" y2="12786" gradientUnits="userSpaceOnUse">
<stop stop-color="#808080" stop-opacity="0.25"/>
<stop offset="0.54" stop-color="#808080" stop-opacity="0.12"/>
<stop offset="1" stop-color="#808080" stop-opacity="0.1"/>
</linearGradient>
<linearGradient id="paint5_linear" x1="9770.04" y1="8498.37" x2="9770.04" y2="5939.73" gradientUnits="userSpaceOnUse">
<stop stop-color="#808080" stop-opacity="0.25"/>
<stop offset="0.54" stop-color="#808080" stop-opacity="0.12"/>
<stop offset="1" stop-color="#808080" stop-opacity="0.1"/>
</linearGradient>
<linearGradient id="paint6_linear" x1="31982.7" y1="175235" x2="31982.7" y2="31574.1" gradientUnits="userSpaceOnUse">
<stop stop-color="#808080" stop-opacity="0.25"/>
<stop offset="0.54" stop-color="#808080" stop-opacity="0.12"/>
<stop offset="1" stop-color="#808080" stop-opacity="0.1"/>
</linearGradient>
<clipPath id="clip0">
<rect width="256" height="235" fill="white" transform="translate(57 179)"/>
</clipPath>
</defs>
</svg>
